<mxfile host="Electron" agent="Mozilla/5.0 (Windows NT 10.0; Win64; x64) AppleWebKit/537.36 (KHTML, like Gecko) draw.io/25.0.2 Chrome/128.0.6613.186 Electron/32.2.5 Safari/537.36" version="25.0.2">
  <diagram name="Seite-1" id="lHkqn6piMkiz3MmzFoeV">
    <mxGraphModel dx="646" dy="413" grid="1" gridSize="10" guides="1" tooltips="1" connect="1" arrows="1" fold="1" page="1" pageScale="1" pageWidth="827" pageHeight="1169" math="0" shadow="0">
      <root>
        <mxCell id="0" />
        <mxCell id="1" parent="0" />
        <mxCell id="0SqNzuLf6Q8zkrLNCoxb-5" value="dvpd concept and toolset&lt;div&gt;(Probably a clone of the git repo)&lt;/div&gt;" style="shape=card;whiteSpace=wrap;html=1;size=20;verticalAlign=top;fillColor=#999999;fontColor=#FFFFFF;" vertex="1" parent="1">
          <mxGeometry x="40" y="40" width="280" height="390" as="geometry" />
        </mxCell>
        <mxCell id="0SqNzuLf6Q8zkrLNCoxb-7" value="commands" style="shape=card;whiteSpace=wrap;html=1;size=10;strokeColor=#FF8000;strokeWidth=2;align=center;verticalAlign=top;fontFamily=Helvetica;fontSize=12;fontColor=default;fillColor=#CCCCCC;" vertex="1" parent="1">
          <mxGeometry x="80" y="90" width="220" height="90" as="geometry" />
        </mxCell>
        <mxCell id="0SqNzuLf6Q8zkrLNCoxb-8" value="config_template" style="shape=card;whiteSpace=wrap;html=1;size=11;strokeColor=#000000;strokeWidth=1;align=center;verticalAlign=top;fontFamily=Helvetica;fontSize=12;fontColor=default;fillColor=#CCCCCC;" vertex="1" parent="1">
          <mxGeometry x="80" y="190" width="220" height="60" as="geometry" />
        </mxCell>
        <mxCell id="0SqNzuLf6Q8zkrLNCoxb-1" value="directory" style="shape=card;whiteSpace=wrap;html=1;size=20;" vertex="1" parent="1">
          <mxGeometry x="600" y="20" width="80" height="40" as="geometry" />
        </mxCell>
        <mxCell id="0SqNzuLf6Q8zkrLNCoxb-2" value="dvpd_build4... bat" style="shape=note;whiteSpace=wrap;html=1;backgroundOutline=1;darkOpacity=0.05;size=13;" vertex="1" parent="1">
          <mxGeometry x="110" y="112.5" width="160" height="27.5" as="geometry" />
        </mxCell>
        <mxCell id="0SqNzuLf6Q8zkrLNCoxb-3" value="Script or config file" style="shape=note;whiteSpace=wrap;html=1;backgroundOutline=1;darkOpacity=0.05;size=12;" vertex="1" parent="1">
          <mxGeometry x="700" y="20" width="100" height="50" as="geometry" />
        </mxCell>
        <mxCell id="0SqNzuLf6Q8zkrLNCoxb-4" value="directory&lt;div&gt;added in path&lt;/div&gt;" style="shape=card;whiteSpace=wrap;html=1;size=20;strokeColor=#FF8000;strokeWidth=2;" vertex="1" parent="1">
          <mxGeometry x="605" y="70" width="80" height="40" as="geometry" />
        </mxCell>
        <mxCell id="0SqNzuLf6Q8zkrLNCoxb-6" value="template for project specifc version" style="shape=note;whiteSpace=wrap;html=1;backgroundOutline=1;darkOpacity=0.05;dashed=1;dashPattern=8 8;size=11;" vertex="1" parent="1">
          <mxGeometry x="700" y="72.5" width="105" height="47.5" as="geometry" />
        </mxCell>
        <mxCell id="0SqNzuLf6Q8zkrLNCoxb-9" value="processes" style="shape=card;whiteSpace=wrap;html=1;size=11;strokeColor=#000000;strokeWidth=1;align=center;verticalAlign=top;fontFamily=Helvetica;fontSize=12;fontColor=default;fillColor=#CCCCCC;" vertex="1" parent="1">
          <mxGeometry x="80" y="300" width="220" height="120" as="geometry" />
        </mxCell>
        <mxCell id="0SqNzuLf6Q8zkrLNCoxb-10" value="dvpdc.ini" style="shape=note;whiteSpace=wrap;html=1;backgroundOutline=1;darkOpacity=0.05;size=13;dashed=1;dashPattern=8 8;" vertex="1" parent="1">
          <mxGeometry x="110" y="212.5" width="160" height="25" as="geometry" />
        </mxCell>
        <mxCell id="0SqNzuLf6Q8zkrLNCoxb-11" value="dvpdc" style="shape=card;whiteSpace=wrap;html=1;size=11;strokeColor=#000000;strokeWidth=1;align=center;verticalAlign=top;fontFamily=Helvetica;fontSize=12;fontColor=default;fillColor=#E6E6E6;" vertex="1" parent="1">
          <mxGeometry x="110" y="325" width="170" height="45" as="geometry" />
        </mxCell>
        <mxCell id="0SqNzuLf6Q8zkrLNCoxb-12" value="main.py" style="shape=note;whiteSpace=wrap;html=1;backgroundOutline=1;darkOpacity=0.05;size=13;" vertex="1" parent="1">
          <mxGeometry x="120" y="350" width="160" height="20" as="geometry" />
        </mxCell>
        <mxCell id="0SqNzuLf6Q8zkrLNCoxb-13" value="..." style="shape=card;whiteSpace=wrap;html=1;size=10;strokeColor=#000000;strokeWidth=1;align=center;verticalAlign=top;fontFamily=Helvetica;fontSize=12;fontColor=default;fillColor=#E6E6E6;" vertex="1" parent="1">
          <mxGeometry x="110" y="380" width="170" height="30" as="geometry" />
        </mxCell>
        <mxCell id="0SqNzuLf6Q8zkrLNCoxb-14" value="....bat" style="shape=note;whiteSpace=wrap;html=1;backgroundOutline=1;darkOpacity=0.05;size=13;" vertex="1" parent="1">
          <mxGeometry x="110" y="142.5" width="160" height="27.5" as="geometry" />
        </mxCell>
        <mxCell id="0SqNzuLf6Q8zkrLNCoxb-15" value="documentation" style="shape=card;whiteSpace=wrap;html=1;size=10;strokeColor=#000000;strokeWidth=1;align=center;verticalAlign=top;fontFamily=Helvetica;fontSize=12;fontColor=default;fillColor=#CCCCCC;" vertex="1" parent="1">
          <mxGeometry x="80" y="260" width="220" height="30" as="geometry" />
        </mxCell>
        <mxCell id="0SqNzuLf6Q8zkrLNCoxb-16" value="python install" style="shape=card;whiteSpace=wrap;html=1;size=20;verticalAlign=top;fillColor=#999999;fontColor=#FFFFFF;strokeColor=#FF8000;strokeWidth=2;" vertex="1" parent="1">
          <mxGeometry x="45" y="440" width="275" height="60" as="geometry" />
        </mxCell>
        <mxCell id="0SqNzuLf6Q8zkrLNCoxb-17" value="binary exe" style="rounded=1;whiteSpace=wrap;html=1;" vertex="1" parent="1">
          <mxGeometry x="600" y="170" width="90" height="27.5" as="geometry" />
        </mxCell>
        <mxCell id="0SqNzuLf6Q8zkrLNCoxb-18" value="python" style="rounded=1;whiteSpace=wrap;html=1;" vertex="1" parent="1">
          <mxGeometry x="135" y="470" width="90" height="27.5" as="geometry" />
        </mxCell>
        <mxCell id="0SqNzuLf6Q8zkrLNCoxb-19" value="Project A Repository" style="shape=card;whiteSpace=wrap;html=1;size=20;verticalAlign=top;fillColor=#999999;fontColor=#FFFFFF;" vertex="1" parent="1">
          <mxGeometry x="40" y="510" width="280" height="470" as="geometry" />
        </mxCell>
        <mxCell id="0SqNzuLf6Q8zkrLNCoxb-20" value="dvpds" style="shape=card;whiteSpace=wrap;html=1;size=11;strokeColor=#000000;strokeWidth=1;align=center;verticalAlign=top;fontFamily=Helvetica;fontSize=12;fontColor=default;fillColor=#CCCCCC;" vertex="1" parent="1">
          <mxGeometry x="80" y="540" width="220" height="60" as="geometry" />
        </mxCell>
        <mxCell id="0SqNzuLf6Q8zkrLNCoxb-21" value="" style="shape=note;whiteSpace=wrap;html=1;backgroundOutline=1;darkOpacity=0.05;size=12;" vertex="1" parent="1">
          <mxGeometry x="230" y="560" width="60" height="30" as="geometry" />
        </mxCell>
        <mxCell id="0SqNzuLf6Q8zkrLNCoxb-24" value="" style="shape=note;whiteSpace=wrap;html=1;backgroundOutline=1;darkOpacity=0.05;size=14;" vertex="1" parent="1">
          <mxGeometry x="210" y="560" width="60" height="30" as="geometry" />
        </mxCell>
        <mxCell id="0SqNzuLf6Q8zkrLNCoxb-25" value="" style="shape=note;whiteSpace=wrap;html=1;backgroundOutline=1;darkOpacity=0.05;size=14;" vertex="1" parent="1">
          <mxGeometry x="190" y="560" width="60" height="30" as="geometry" />
        </mxCell>
        <mxCell id="0SqNzuLf6Q8zkrLNCoxb-26" value="dvpd A2" style="shape=note;whiteSpace=wrap;html=1;backgroundOutline=1;darkOpacity=0.05;size=14;" vertex="1" parent="1">
          <mxGeometry x="170" y="560" width="60" height="30" as="geometry" />
        </mxCell>
        <mxCell id="0SqNzuLf6Q8zkrLNCoxb-27" value="dvpd A1" style="shape=note;whiteSpace=wrap;html=1;backgroundOutline=1;darkOpacity=0.05;size=14;" vertex="1" parent="1">
          <mxGeometry x="155" y="560" width="60" height="30" as="geometry" />
        </mxCell>
        <mxCell id="0SqNzuLf6Q8zkrLNCoxb-28" value="ddls" style="shape=card;whiteSpace=wrap;html=1;size=11;strokeColor=#000000;strokeWidth=1;align=center;verticalAlign=top;fontFamily=Helvetica;fontSize=12;fontColor=default;fillColor=#CCCCCC;" vertex="1" parent="1">
          <mxGeometry x="80" y="720" width="220" height="110" as="geometry" />
        </mxCell>
        <mxCell id="0SqNzuLf6Q8zkrLNCoxb-31" value="documentation" style="shape=card;whiteSpace=wrap;html=1;size=11;strokeColor=#000000;strokeWidth=1;align=center;verticalAlign=top;fontFamily=Helvetica;fontSize=12;fontColor=default;fillColor=#CCCCCC;" vertex="1" parent="1">
          <mxGeometry x="80" y="660" width="220" height="60" as="geometry" />
        </mxCell>
        <mxCell id="0SqNzuLf6Q8zkrLNCoxb-32" value="directory&lt;div&gt;ignored by Git&lt;/div&gt;" style="shape=card;whiteSpace=wrap;html=1;size=20;strokeColor=#0000FF;strokeWidth=2;" vertex="1" parent="1">
          <mxGeometry x="605" y="120" width="80" height="40" as="geometry" />
        </mxCell>
        <mxCell id="0SqNzuLf6Q8zkrLNCoxb-34" value="" style="shape=note;whiteSpace=wrap;html=1;backgroundOutline=1;darkOpacity=0.05;size=14;" vertex="1" parent="1">
          <mxGeometry x="175" y="685" width="60" height="30" as="geometry" />
        </mxCell>
        <mxCell id="0SqNzuLf6Q8zkrLNCoxb-35" value="" style="shape=note;whiteSpace=wrap;html=1;backgroundOutline=1;darkOpacity=0.05;size=14;" vertex="1" parent="1">
          <mxGeometry x="155" y="685" width="60" height="30" as="geometry" />
        </mxCell>
        <mxCell id="0SqNzuLf6Q8zkrLNCoxb-36" value="" style="shape=note;whiteSpace=wrap;html=1;backgroundOutline=1;darkOpacity=0.05;size=12;" vertex="1" parent="1">
          <mxGeometry x="135" y="685" width="60" height="30" as="geometry" />
        </mxCell>
        <mxCell id="0SqNzuLf6Q8zkrLNCoxb-33" value="doc A1" style="shape=note;whiteSpace=wrap;html=1;backgroundOutline=1;darkOpacity=0.05;size=12;" vertex="1" parent="1">
          <mxGeometry x="110" y="685" width="60" height="30" as="geometry" />
        </mxCell>
        <mxCell id="0SqNzuLf6Q8zkrLNCoxb-37" value="schema_f" style="shape=card;whiteSpace=wrap;html=1;size=11;strokeColor=#000000;strokeWidth=1;align=center;verticalAlign=top;fontFamily=Helvetica;fontSize=12;fontColor=default;fillColor=#E6E6E6;" vertex="1" parent="1">
          <mxGeometry x="100" y="740" width="200" height="60" as="geometry" />
        </mxCell>
        <mxCell id="0SqNzuLf6Q8zkrLNCoxb-30" value="table_yyy" style="shape=note;whiteSpace=wrap;html=1;backgroundOutline=1;darkOpacity=0.05;size=12;" vertex="1" parent="1">
          <mxGeometry x="215" y="760" width="60" height="30" as="geometry" />
        </mxCell>
        <mxCell id="0SqNzuLf6Q8zkrLNCoxb-29" value="table_xxx" style="shape=note;whiteSpace=wrap;html=1;backgroundOutline=1;darkOpacity=0.05;size=12;" vertex="1" parent="1">
          <mxGeometry x="175" y="760" width="60" height="30" as="geometry" />
        </mxCell>
        <mxCell id="0SqNzuLf6Q8zkrLNCoxb-38" value="schema_g" style="shape=card;whiteSpace=wrap;html=1;size=11;strokeColor=#000000;strokeWidth=1;align=center;verticalAlign=top;fontFamily=Helvetica;fontSize=12;fontColor=default;fillColor=#E6E6E6;" vertex="1" parent="1">
          <mxGeometry x="100" y="800" width="200" height="30" as="geometry" />
        </mxCell>
        <mxCell id="0SqNzuLf6Q8zkrLNCoxb-40" value="dvpis" style="shape=card;whiteSpace=wrap;html=1;size=11;strokeColor=#000000;strokeWidth=1;align=center;verticalAlign=top;fontFamily=Helvetica;fontSize=12;fontColor=default;fillColor=#CCCCCC;" vertex="1" parent="1">
          <mxGeometry x="80" y="600" width="220" height="60" as="geometry" />
        </mxCell>
        <mxCell id="0SqNzuLf6Q8zkrLNCoxb-41" value="" style="shape=note;whiteSpace=wrap;html=1;backgroundOutline=1;darkOpacity=0.05;size=12;" vertex="1" parent="1">
          <mxGeometry x="230" y="620" width="60" height="30" as="geometry" />
        </mxCell>
        <mxCell id="0SqNzuLf6Q8zkrLNCoxb-42" value="" style="shape=note;whiteSpace=wrap;html=1;backgroundOutline=1;darkOpacity=0.05;size=14;" vertex="1" parent="1">
          <mxGeometry x="210" y="620" width="60" height="30" as="geometry" />
        </mxCell>
        <mxCell id="0SqNzuLf6Q8zkrLNCoxb-43" value="" style="shape=note;whiteSpace=wrap;html=1;backgroundOutline=1;darkOpacity=0.05;size=14;" vertex="1" parent="1">
          <mxGeometry x="190" y="620" width="60" height="30" as="geometry" />
        </mxCell>
        <mxCell id="0SqNzuLf6Q8zkrLNCoxb-44" value="dvpd A2" style="shape=note;whiteSpace=wrap;html=1;backgroundOutline=1;darkOpacity=0.05;size=14;" vertex="1" parent="1">
          <mxGeometry x="170" y="620" width="60" height="30" as="geometry" />
        </mxCell>
        <mxCell id="0SqNzuLf6Q8zkrLNCoxb-45" value="dvpi A1" style="shape=note;whiteSpace=wrap;html=1;backgroundOutline=1;darkOpacity=0.05;size=14;" vertex="1" parent="1">
          <mxGeometry x="155" y="620" width="60" height="30" as="geometry" />
        </mxCell>
        <mxCell id="0SqNzuLf6Q8zkrLNCoxb-46" value="more ..." style="shape=card;whiteSpace=wrap;html=1;size=11;strokeColor=#000000;strokeWidth=1;align=center;verticalAlign=top;fontFamily=Helvetica;fontSize=12;fontColor=default;fillColor=#CCCCCC;" vertex="1" parent="1">
          <mxGeometry x="80" y="830" width="220" height="30" as="geometry" />
        </mxCell>
        <mxCell id="0SqNzuLf6Q8zkrLNCoxb-47" value="dvpd_build" style="shape=card;whiteSpace=wrap;html=1;size=11;strokeColor=#0000FF;strokeWidth=2;align=center;verticalAlign=top;fontFamily=Helvetica;fontSize=12;fontColor=default;fillColor=#CCCCCC;" vertex="1" parent="1">
          <mxGeometry x="80" y="870" width="220" height="100" as="geometry" />
        </mxCell>
        <mxCell id="0SqNzuLf6Q8zkrLNCoxb-50" style="edgeStyle=orthogonalEdgeStyle;rounded=0;orthogonalLoop=1;jettySize=auto;html=1;curved=1;entryX=1.003;entryY=0.094;entryDx=0;entryDy=0;entryPerimeter=0;" edge="1" parent="1" source="0SqNzuLf6Q8zkrLNCoxb-48" target="0SqNzuLf6Q8zkrLNCoxb-28">
          <mxGeometry relative="1" as="geometry">
            <mxPoint x="329.9999999999999" y="810" as="targetPoint" />
            <Array as="points">
              <mxPoint x="350" y="903" />
              <mxPoint x="350" y="730" />
            </Array>
          </mxGeometry>
        </mxCell>
        <mxCell id="0SqNzuLf6Q8zkrLNCoxb-48" value="dvpdc.ini" style="shape=note;whiteSpace=wrap;html=1;backgroundOutline=1;darkOpacity=0.05;size=13;" vertex="1" parent="1">
          <mxGeometry x="115" y="890" width="95" height="25" as="geometry" />
        </mxCell>
        <mxCell id="0SqNzuLf6Q8zkrLNCoxb-49" style="edgeStyle=orthogonalEdgeStyle;rounded=0;orthogonalLoop=1;jettySize=auto;html=1;dashed=1;curved=1;endArrow=open;endFill=0;" edge="1" parent="1" source="0SqNzuLf6Q8zkrLNCoxb-10" target="0SqNzuLf6Q8zkrLNCoxb-48">
          <mxGeometry relative="1" as="geometry">
            <Array as="points">
              <mxPoint x="20" y="230" />
              <mxPoint x="20" y="900" />
            </Array>
          </mxGeometry>
        </mxCell>
        <mxCell id="0SqNzuLf6Q8zkrLNCoxb-51" style="edgeStyle=orthogonalEdgeStyle;shape=connector;curved=1;rounded=0;orthogonalLoop=1;jettySize=auto;html=1;entryX=1;entryY=0.5;entryDx=0;entryDy=0;entryPerimeter=0;strokeColor=default;align=center;verticalAlign=middle;fontFamily=Helvetica;fontSize=11;fontColor=default;labelBackgroundColor=default;endArrow=classic;" edge="1" parent="1" source="0SqNzuLf6Q8zkrLNCoxb-48" target="0SqNzuLf6Q8zkrLNCoxb-31">
          <mxGeometry relative="1" as="geometry">
            <Array as="points">
              <mxPoint x="360" y="903" />
              <mxPoint x="360" y="690" />
            </Array>
          </mxGeometry>
        </mxCell>
        <mxCell id="0SqNzuLf6Q8zkrLNCoxb-52" style="edgeStyle=orthogonalEdgeStyle;shape=connector;curved=1;rounded=0;orthogonalLoop=1;jettySize=auto;html=1;entryX=1.001;entryY=0.418;entryDx=0;entryDy=0;entryPerimeter=0;strokeColor=default;align=center;verticalAlign=middle;fontFamily=Helvetica;fontSize=11;fontColor=default;labelBackgroundColor=default;endArrow=classic;" edge="1" parent="1" source="0SqNzuLf6Q8zkrLNCoxb-48" target="0SqNzuLf6Q8zkrLNCoxb-40">
          <mxGeometry relative="1" as="geometry">
            <Array as="points">
              <mxPoint x="370" y="903" />
              <mxPoint x="370" y="625" />
            </Array>
          </mxGeometry>
        </mxCell>
        <mxCell id="0SqNzuLf6Q8zkrLNCoxb-53" style="edgeStyle=orthogonalEdgeStyle;shape=connector;curved=1;rounded=0;orthogonalLoop=1;jettySize=auto;html=1;entryX=1;entryY=0.5;entryDx=0;entryDy=0;entryPerimeter=0;strokeColor=default;align=center;verticalAlign=middle;fontFamily=Helvetica;fontSize=11;fontColor=default;labelBackgroundColor=default;endArrow=classic;" edge="1" parent="1" source="0SqNzuLf6Q8zkrLNCoxb-48" target="0SqNzuLf6Q8zkrLNCoxb-20">
          <mxGeometry relative="1" as="geometry">
            <Array as="points">
              <mxPoint x="380" y="903" />
              <mxPoint x="380" y="570" />
            </Array>
          </mxGeometry>
        </mxCell>
        <mxCell id="0SqNzuLf6Q8zkrLNCoxb-54" value="build_shell.bat" style="shape=note;whiteSpace=wrap;html=1;backgroundOutline=1;darkOpacity=0.05;size=13;" vertex="1" parent="1">
          <mxGeometry x="115" y="920" width="95" height="25" as="geometry" />
        </mxCell>
        <mxCell id="0SqNzuLf6Q8zkrLNCoxb-56" style="rounded=0;orthogonalLoop=1;jettySize=auto;html=1;dashed=1;endArrow=open;endFill=0;" edge="1" parent="1">
          <mxGeometry relative="1" as="geometry">
            <mxPoint x="717.5" y="142.93" as="sourcePoint" />
            <mxPoint x="787.5" y="142.5014285714286" as="targetPoint" />
          </mxGeometry>
        </mxCell>
        <mxCell id="0SqNzuLf6Q8zkrLNCoxb-57" value="copy" style="edgeLabel;html=1;align=center;verticalAlign=middle;resizable=0;points=[];fontFamily=Helvetica;fontSize=11;fontColor=default;labelBackgroundColor=none;" vertex="1" connectable="0" parent="0SqNzuLf6Q8zkrLNCoxb-56">
          <mxGeometry x="-0.3961" y="-1" relative="1" as="geometry">
            <mxPoint x="9" y="10" as="offset" />
          </mxGeometry>
        </mxCell>
        <mxCell id="0SqNzuLf6Q8zkrLNCoxb-58" style="rounded=0;orthogonalLoop=1;jettySize=auto;html=1;endArrow=classic;endFill=1;strokeColor=default;align=center;verticalAlign=middle;fontFamily=Helvetica;fontSize=11;fontColor=default;labelBackgroundColor=default;edgeStyle=orthogonalEdgeStyle;curved=1;" edge="1" parent="1">
          <mxGeometry relative="1" as="geometry">
            <mxPoint x="717.5" y="183.94" as="sourcePoint" />
            <mxPoint x="787.5" y="183.51142857142858" as="targetPoint" />
          </mxGeometry>
        </mxCell>
        <mxCell id="0SqNzuLf6Q8zkrLNCoxb-59" value="points to" style="edgeLabel;html=1;align=center;verticalAlign=middle;resizable=0;points=[];fontFamily=Helvetica;fontSize=11;fontColor=default;labelBackgroundColor=none;rounded=0;strokeColor=default;" vertex="1" connectable="0" parent="0SqNzuLf6Q8zkrLNCoxb-58">
          <mxGeometry x="-0.3961" y="-1" relative="1" as="geometry">
            <mxPoint x="11" y="5" as="offset" />
          </mxGeometry>
        </mxCell>
      </root>
    </mxGraphModel>
  </diagram>
</mxfile>
